<svg width="871" height="330" viewBox="0 0 871 330" fill="none" xmlns="http://www.w3.org/2000/svg">
<path d="M42.0609 228V154H56.8609V183.2H84.8609V154H99.5609V228H84.8609V196H56.8609V228H42.0609ZM108.245 228L131.945 154H149.345L173.045 228H157.545L146.945 189.5C144.745 181.8 142.645 173.2 140.545 165.3H140.145C138.145 173.3 136.045 181.8 133.845 189.5L123.245 228H108.245ZM122.945 209V197.6H158.145V209H122.945ZM181.807 228V154H207.507C223.007 154 235.307 159.4 235.307 176.4C235.307 192.9 223.007 200.1 207.507 200.1H196.607V228H181.807ZM196.607 188.4H206.107C215.707 188.4 220.907 184.3 220.907 176.4C220.907 168.5 215.707 165.8 206.107 165.8H196.607V188.4ZM222.007 228L204.807 196.3L215.107 187L238.507 228H222.007ZM249.971 228V154H274.271C290.571 154 303.171 159.7 303.171 177.3C303.171 194.2 290.571 201.7 274.671 201.7H264.771V228H249.971ZM264.771 190H273.671C283.871 190 288.771 185.7 288.771 177.3C288.771 168.6 283.371 165.8 273.171 165.8H264.771V190ZM316.67 228V154H362.07V166.3H331.47V183.4H357.37V195.9H331.47V215.6H363.17V228H316.67ZM378.194 228V154H403.894C419.394 154 431.694 159.4 431.694 176.4C431.694 192.9 419.394 200.1 403.894 200.1H392.994V228H378.194ZM392.994 188.4H402.494C412.094 188.4 417.294 184.3 417.294 176.4C417.294 168.5 412.094 165.8 402.494 165.8H392.994V188.4ZM418.394 228L401.194 196.3L411.494 187L434.894 228H418.394ZM448.358 185.7L444.958 179.2C451.558 175.7 454.758 171.5 454.758 164.7L454.058 155.6L459.358 162.7C457.758 164.1 455.858 165 453.758 165C449.358 165 445.758 162.1 445.758 157.3C445.758 152.2 449.058 149 453.758 149C460.058 149 463.458 154 463.458 162.5C463.458 172.7 458.458 180.5 448.358 185.7ZM500.977 229.4C490.977 229.4 481.177 225.6 473.977 218.7L482.477 208.5C487.677 213.4 494.777 216.6 501.277 216.6C508.977 216.6 512.977 213.3 512.977 208.2C512.977 202.7 508.477 200.9 501.877 198.1L491.977 193.9C484.577 190.9 476.977 184.8 476.977 174.1C476.977 162 487.677 152.7 502.577 152.7C511.177 152.7 519.777 156.1 525.777 162.2L518.377 171.5C513.577 167.6 508.677 165.4 502.577 165.4C496.077 165.4 491.977 168.3 491.977 173.1C491.977 178.4 497.277 180.4 503.577 182.9L513.277 186.9C522.177 190.6 528.077 196.4 528.077 207C528.077 219.1 517.977 229.4 500.977 229.4ZM563.936 228V154H578.736V183.2H606.736V154H621.436V228H606.736V196H578.736V228H563.936ZM639.62 228V154H654.42V228H639.62ZM672.627 228V154H687.427V215.6H717.527V228H672.627ZM730.44 228V154H745.24V215.6H775.34V228H730.44ZM806.837 229.4C796.837 229.4 787.037 225.6 779.837 218.7L788.337 208.5C793.537 213.4 800.637 216.6 807.137 216.6C814.837 216.6 818.837 213.3 818.837 208.2C818.837 202.7 814.337 200.9 807.737 198.1L797.837 193.9C790.437 190.9 782.837 184.8 782.837 174.1C782.837 162 793.537 152.7 808.437 152.7C817.037 152.7 825.637 156.1 831.637 162.2L824.237 171.5C819.437 167.6 814.537 165.4 808.437 165.4C801.937 165.4 797.837 168.3 797.837 173.1C797.837 178.4 803.137 180.4 809.437 182.9L819.137 186.9C828.037 190.6 833.937 196.4 833.937 207C833.937 219.1 823.837 229.4 806.837 229.4Z" fill="black"/>
<path d="M75 67.2785C65.5248 85.5 53 129 53 129H778C778 129 770.143 122.596 764.463 118.657C756.842 113.374 729.769 97.2009 726.616 95.3328C719.246 90.9665 699.157 79.2891 693.871 75.9528C686.752 71.4597 666.126 59.5494 646.813 51.5978C627.5 43.6463 595.133 32.4336 586.883 30.9128C572.482 28.2579 563.209 25.5542 547.863 26.9092C532.781 28.241 522.954 30.9976 516.011 36.9181C509.068 42.8386 513.522 49.7291 523.974 56.5157C528.134 59.2171 534.74 67.2785 531.718 73.5C530.501 76.0054 527.689 82.7841 516.011 82.7841C507.319 82.7841 498.981 82.7841 486.39 75.9528C472.973 68.6735 468.925 62.7507 459.193 56.5157C442 45.5 437.5 42 428 36.9181L427.431 36.6138C417.905 31.5141 403.049 23.5613 380.636 20.5703C363.704 18.3106 351.174 17.2191 335.246 20.5703C319.318 23.9214 313.526 29.5288 313.526 29.5288C313.526 29.5288 307.272 34.9605 311.122 42C314.274 47.7648 323.209 55.4695 323.209 61C323.209 66.4843 317.5 74 308.604 75.9528C295.321 78.8684 287.687 75.9017 273.852 67.2785C260.017 58.6552 243 45.5 243 45.5C243 45.5 228.39 31.9773 209.428 22.572C201.856 18.8165 182.683 10.3989 170.96 8.10421C159.237 5.80947 148.21 4.76705 141.741 5.04355C130.075 5.54223 120.85 9.105 113.027 14.8376C105.203 20.5703 86.6581 46.5 90 42C93.3419 37.5 84.4752 49.0569 75 67.2785Z" fill="black" stroke="black" stroke-width="10"/>
</svg>
